<mxfile host="app.diagrams.net" modified="2023-12-21T04:27:43.930Z" agent="Mozilla/5.0 (Windows NT 10.0; Win64; x64) AppleWebKit/537.36 (KHTML, like Gecko) Chrome/117.0.0.0 Safari/537.36" version="22.1.11" etag="eLZNh1KxLthLXxHWgRFA" type="github">
  <diagram name="Страница — 1" id="yGcHt158oyfdTNCkGg10">
    <mxGraphModel>
      <root>
        <mxCell id="0" />
        <mxCell id="1" parent="0" />
      </root>
    </mxGraphModel>
  </diagram>
</mxfile>
